<svg width="55" height="55" viewBox="0 0 55 55" fill="none" xmlns="http://www.w3.org/2000/svg">
<circle cx="27.5" cy="27.5" r="27.5" fill="#D9D9D9" fill-opacity="0.2"/>
<path d="M29.5 19.75C29.5 19.6025 29.4565 19.4582 29.3749 19.3353C29.2933 19.2124 29.1773 19.1163 29.0414 19.059C28.9055 19.0017 28.7557 18.9857 28.6107 19.0131C28.4658 19.0405 28.3321 19.11 28.2265 19.213L23.836 23.488H21.25C20.6533 23.488 20.081 23.725 19.659 24.147C19.2371 24.569 19 25.1413 19 25.738V30.223C19 30.8197 19.2371 31.392 19.659 31.814C20.081 32.2359 20.6533 32.473 21.25 32.473H23.8345L28.225 36.7855C28.3305 36.8889 28.4641 36.9588 28.6092 36.9865C28.7542 37.0143 28.9043 36.9986 29.0404 36.9414C29.1766 36.8842 29.2928 36.7881 29.3746 36.6651C29.4564 36.5421 29.5 36.3977 29.5 36.25V19.75ZM31.1665 23.7835C31.2278 23.7063 31.3038 23.642 31.39 23.5942C31.4762 23.5464 31.5709 23.5161 31.6689 23.5049C31.7668 23.4938 31.866 23.502 31.9607 23.5292C32.0555 23.5565 32.1439 23.6021 32.221 23.6635L32.224 23.665L32.227 23.668L32.2345 23.674L32.257 23.6935L32.326 23.7535C32.381 23.8035 32.452 23.8745 32.539 23.9665C32.7085 24.151 32.929 24.4195 33.1465 24.7765C33.583 25.4965 34.006 26.566 34.006 27.9985C34.006 29.4295 33.583 30.5005 33.1465 31.2205C32.9715 31.5105 32.7679 31.7823 32.539 32.032C32.4427 32.1347 32.3415 32.2328 32.236 32.326L32.224 32.3365H32.2225C32.2225 32.3365 31.552 32.701 31.168 32.2195C31.0445 32.065 30.9871 31.868 31.0081 31.6713C31.0292 31.4747 31.1271 31.2943 31.2805 31.1695L31.2835 31.1665L31.3105 31.1425C31.3385 31.1175 31.381 31.075 31.438 31.015C31.5986 30.8386 31.7413 30.6466 31.864 30.442C32.179 29.9245 32.506 29.119 32.506 27.997C32.506 26.875 32.179 26.0725 31.864 25.5565C31.7095 25.3021 31.5241 25.0678 31.312 24.859L31.285 24.835C31.1303 24.711 31.0309 24.5308 31.0087 24.3337C30.9865 24.1366 31.0432 23.9388 31.1665 23.7835ZM33.7195 20.6635C33.6427 20.5999 33.554 20.5523 33.4586 20.5235C33.3633 20.4946 33.2631 20.485 33.1639 20.4953C33.0648 20.5056 32.9687 20.5355 32.8813 20.5834C32.7938 20.6312 32.7168 20.696 32.6547 20.774C32.5926 20.8519 32.5467 20.9415 32.5196 21.0374C32.4925 21.1333 32.4848 21.2336 32.4969 21.3326C32.509 21.4315 32.5408 21.527 32.5902 21.6135C32.6397 21.7001 32.7059 21.7758 32.785 21.8365L32.8015 21.8515L32.8795 21.919C32.9515 21.982 33.052 22.0795 33.181 22.2115C33.436 22.477 33.781 22.876 34.126 23.4025C34.816 24.454 35.506 26.002 35.506 28.006C35.5119 29.6414 35.0315 31.2416 34.126 32.6035C33.781 33.1285 33.436 33.5245 33.181 33.7885C33.0603 33.9139 32.9342 34.034 32.803 34.1485L32.7865 34.1635H32.785C32.6336 34.2888 32.5375 34.4684 32.5172 34.6639C32.4969 34.8593 32.5541 35.0549 32.6766 35.2086C32.799 35.3623 32.9769 35.4618 33.1719 35.4857C33.3669 35.5096 33.5636 35.456 33.7195 35.3365L33.769 35.296L33.8815 35.1985C33.976 35.113 34.1065 34.9915 34.261 34.831C34.677 34.399 35.0517 33.9289 35.38 33.427C36.4455 31.8203 37.0109 29.9339 37.0045 28.006C37.0085 26.0766 36.4434 24.1889 35.38 22.579C35.0516 22.0766 34.6775 21.6056 34.2625 21.172C34.1056 21.0092 33.9414 20.8535 33.7705 20.7055L33.736 20.677L33.7255 20.668L33.7225 20.665L33.7195 20.6635Z" fill="white"/>
</svg>
