<svg width="55" height="55" viewBox="0 0 55 55" fill="none" xmlns="http://www.w3.org/2000/svg">
<circle cx="27.5" cy="27.5" r="27.5" fill="#F44848"/>
<path d="M37.949 28.992L37.751 30.029C37.566 31 36.659 31.652 35.631 31.553L33.584 31.355C32.692 31.269 31.932 30.635 31.706 29.789L31.074 27.434C30.14 27.0507 29.11 26.8757 27.984 26.909C26.9006 26.9323 25.8328 27.1727 24.844 27.616L24.453 29.821C24.305 30.657 23.615 31.28 22.742 31.368L20.707 31.572C19.692 31.674 18.719 31.028 18.43 30.062L18.121 29.025C17.813 27.993 18.088 26.907 18.842 26.174C20.6226 24.444 23.592 23.576 27.75 23.57C31.9133 23.5654 34.975 24.428 36.935 26.158C37.759 26.886 38.145 27.964 37.95 28.992" fill="white"/>
</svg>
