<svg width="55" height="55" viewBox="0 0 55 55" fill="none" xmlns="http://www.w3.org/2000/svg">
<circle cx="27.5" cy="27.5" r="27.5" fill="#D9D9D9" fill-opacity="0.2"/>
<path d="M28 17C28.6566 17 29.3068 17.1293 29.9134 17.3806C30.52 17.6319 31.0712 18.0002 31.5355 18.4645C31.9998 18.9288 32.3681 19.48 32.6194 20.0866C32.8707 20.6932 33 21.3434 33 22V26C33 27.3261 32.4732 28.5979 31.5355 29.5355C30.5978 30.4732 29.3261 31 28 31C26.6739 31 25.4021 30.4732 24.4645 29.5355C23.5268 28.5979 23 27.3261 23 26V22C23 20.6739 23.5268 19.4021 24.4645 18.4645C25.4021 17.5268 26.6739 17 28 17ZM19.055 27H21.07C21.3123 28.6648 22.1459 30.1867 23.4182 31.2873C24.6906 32.3879 26.3167 32.9936 27.999 32.9936C29.6813 32.9936 31.3074 32.3879 32.5798 31.2873C33.8521 30.1867 34.6857 28.6648 34.928 27H36.944C36.7166 29.0287 35.8066 30.9199 34.3632 32.3635C32.9198 33.8071 31.0287 34.7174 29 34.945V39H27V34.945C24.9711 34.7176 23.0798 33.8074 21.6362 32.3638C20.1926 30.9202 19.2824 29.0289 19.055 27Z" fill="white"/>
</svg>
