<svg width="55" height="55" viewBox="0 0 55 55" fill="none" xmlns="http://www.w3.org/2000/svg">
<circle cx="27.5" cy="27.5" r="27.5" fill="#D9D9D9" fill-opacity="0.6"/>
<path fill-rule="evenodd" clip-rule="evenodd" d="M21 21C20.2044 21 19.4413 21.3161 18.8787 21.8787C18.3161 22.4413 18 23.2044 18 24V32C18 32.7956 18.3161 33.5587 18.8787 34.1213C19.4413 34.6839 20.2044 35 21 35H31C31.7956 35 32.5587 34.6839 33.1213 34.1213C33.6839 33.5587 34 32.7956 34 32V30.414L36.293 32.707C36.4329 32.8468 36.611 32.942 36.805 32.9806C36.9989 33.0192 37.2 32.9993 37.3827 32.9237C37.5654 32.848 37.7215 32.7199 37.8314 32.5555C37.9413 32.391 38 32.1978 38 32V24C38 23.8022 37.9413 23.609 37.8314 23.4445C37.7215 23.2801 37.5654 23.152 37.3827 23.0763C37.2 23.0007 36.9989 22.9808 36.805 23.0194C36.611 23.058 36.4329 23.1532 36.293 23.293L34 25.586V24C34 23.2044 33.6839 22.4413 33.1213 21.8787C32.5587 21.3161 31.7956 21 31 21H21Z" fill="white"/>
</svg>
