<svg width="20" height="20" viewBox="0 0 20 20" fill="none" xmlns="http://www.w3.org/2000/svg">
<path d="M5.58926 7.3425C5.43209 7.1907 5.22159 7.1067 5.00309 7.1086C4.7846 7.1105 4.57559 7.19814 4.42108 7.35265C4.26657 7.50715 4.17893 7.71617 4.17703 7.93466C4.17513 8.15316 4.25913 8.36366 4.41093 8.52083L8.23259 12.3425C8.70141 12.8112 9.33718 13.0745 10.0001 13.0745C10.663 13.0745 11.2988 12.8112 11.7676 12.3425L15.5893 8.52083C15.7411 8.36366 15.8251 8.15316 15.8232 7.93466C15.8213 7.71617 15.7336 7.50715 15.5791 7.35265C15.4246 7.19814 15.2156 7.1105 14.9971 7.1086C14.7786 7.1067 14.5681 7.1907 14.4109 7.3425L10.5893 11.1667C10.433 11.3229 10.2211 11.4107 10.0001 11.4107C9.77912 11.4107 9.5672 11.3229 9.41093 11.1667L5.58926 7.3425Z" fill="#FA5805"/>
</svg>
