<svg width="159" height="188" viewBox="0 0 159 188" fill="none" xmlns="http://www.w3.org/2000/svg">
<path d="M79.5 176.518C123.407 176.518 159 140.917 159 96.9999C159 53.0833 123.407 17.4819 79.5 17.4819C35.5934 17.4819 0 53.0833 0 96.9999C0 140.917 35.5934 176.518 79.5 176.518Z" fill="url(#paint0_linear_86_642)"/>
<g filter="url(#filter0_d_86_642)">
<path d="M125.08 63.0722H33.9201C30.993 63.0722 28.6201 65.4456 28.6201 68.3734V179.699C28.6201 182.626 30.993 185 33.9201 185H125.08C128.007 185 130.38 182.626 130.38 179.699V68.3734C130.38 65.4456 128.007 63.0722 125.08 63.0722Z" fill="white"/>
</g>
<path d="M68.9002 78.9758H41.3402C39.5839 78.9758 38.1602 80.3998 38.1602 82.1565C38.1602 83.9132 39.5839 85.3372 41.3402 85.3372H68.9002C70.6564 85.3372 72.0802 83.9132 72.0802 82.1565C72.0802 80.3998 70.6564 78.9758 68.9002 78.9758Z" fill="#E7E0EC"/>
<path d="M87.9802 92.7591H41.3402C39.5839 92.7591 38.1602 94.1832 38.1602 95.9398C38.1602 97.6965 39.5839 99.1205 41.3402 99.1205H87.9802C89.7364 99.1205 91.1602 97.6965 91.1602 95.9398C91.1602 94.1832 89.7364 92.7591 87.9802 92.7591Z" fill="#F3F3F3"/>
<path d="M68.9002 107.602H41.3402C39.5839 107.602 38.1602 109.026 38.1602 110.783C38.1602 112.54 39.5839 113.964 41.3402 113.964H68.9002C70.6564 113.964 72.0802 112.54 72.0802 110.783C72.0802 109.026 70.6564 107.602 68.9002 107.602Z" fill="#E7E0EC"/>
<path d="M87.9802 121.385H41.3402C39.5839 121.385 38.1602 122.809 38.1602 124.566C38.1602 126.323 39.5839 127.747 41.3402 127.747H87.9802C89.7364 127.747 91.1602 126.323 91.1602 124.566C91.1602 122.809 89.7364 121.385 87.9802 121.385Z" fill="#F3F3F3"/>
<path d="M68.9002 136.229H41.3402C39.5839 136.229 38.1602 137.653 38.1602 139.41C38.1602 141.166 39.5839 142.59 41.3402 142.59H68.9002C70.6564 142.59 72.0802 141.166 72.0802 139.41C72.0802 137.653 70.6564 136.229 68.9002 136.229Z" fill="#E7E0EC"/>
<path d="M87.9802 150.012H41.3402C39.5839 150.012 38.1602 151.436 38.1602 153.193C38.1602 154.949 39.5839 156.373 41.3402 156.373H87.9802C89.7364 156.373 91.1602 154.949 91.1602 153.193C91.1602 151.436 89.7364 150.012 87.9802 150.012Z" fill="#F3F3F3"/>
<g filter="url(#filter1_d_86_642)">
<path d="M125.08 9H33.9201C30.993 9 28.6201 11.3734 28.6201 14.3012V46.1084C28.6201 49.0362 30.993 51.4096 33.9201 51.4096H125.08C128.007 51.4096 130.38 49.0362 130.38 46.1084V14.3012C130.38 11.3734 128.007 9 125.08 9Z" fill="#FA5805"/>
</g>
<path d="M68.9002 20.6628H41.3402C39.5839 20.6628 38.1602 22.0868 38.1602 23.8435C38.1602 25.6002 39.5839 27.0242 41.3402 27.0242H68.9002C70.6564 27.0242 72.0802 25.6002 72.0802 23.8435C72.0802 22.0868 70.6564 20.6628 68.9002 20.6628Z" fill="#E7E0EC"/>
<path d="M87.9802 34.4458H41.3402C39.5839 34.4458 38.1602 35.8699 38.1602 37.6265C38.1602 39.3832 39.5839 40.8072 41.3402 40.8072H87.9802C89.7364 40.8072 91.1602 39.3832 91.1602 37.6265C91.1602 35.8699 89.7364 34.4458 87.9802 34.4458Z" fill="white"/>
<defs>
<filter id="filter0_d_86_642" x="22.6201" y="54.0722" width="113.76" height="133.928" filterUnits="userSpaceOnUse" color-interpolation-filters="sRGB">
<feFlood flood-opacity="0" result="BackgroundImageFix"/>
<feColorMatrix in="SourceAlpha" type="matrix" values="0 0 0 0 0 0 0 0 0 0 0 0 0 0 0 0 0 0 127 0" result="hardAlpha"/>
<feOffset dy="-3"/>
<feGaussianBlur stdDeviation="3"/>
<feColorMatrix type="matrix" values="0 0 0 0 0.788235 0 0 0 0 0.803922 0 0 0 0 0.85098 0 0 0 0.349 0"/>
<feBlend mode="normal" in2="BackgroundImageFix" result="effect1_dropShadow_86_642"/>
<feBlend mode="normal" in="SourceGraphic" in2="effect1_dropShadow_86_642" result="shape"/>
</filter>
<filter id="filter1_d_86_642" x="22.6201" y="0" width="113.76" height="54.4097" filterUnits="userSpaceOnUse" color-interpolation-filters="sRGB">
<feFlood flood-opacity="0" result="BackgroundImageFix"/>
<feColorMatrix in="SourceAlpha" type="matrix" values="0 0 0 0 0 0 0 0 0 0 0 0 0 0 0 0 0 0 127 0" result="hardAlpha"/>
<feOffset dy="-3"/>
<feGaussianBlur stdDeviation="3"/>
<feColorMatrix type="matrix" values="0 0 0 0 0.788235 0 0 0 0 0.803922 0 0 0 0 0.85098 0 0 0 0.349 0"/>
<feBlend mode="normal" in2="BackgroundImageFix" result="effect1_dropShadow_86_642"/>
<feBlend mode="normal" in="SourceGraphic" in2="effect1_dropShadow_86_642" result="shape"/>
</filter>
<linearGradient id="paint0_linear_86_642" x1="79.5" y1="17.4819" x2="79.5" y2="176.518" gradientUnits="userSpaceOnUse">
<stop stop-color="#FA5805" stop-opacity="0.1"/>
<stop offset="0.325" stop-color="#FA5805" stop-opacity="0.1"/>
</linearGradient>
</defs>
</svg>
