<svg width="16" height="16" viewBox="0 0 16 16" fill="none" xmlns="http://www.w3.org/2000/svg">
<g id="filled">
<path id="vector" fill-rule="evenodd" clip-rule="evenodd" d="M0 7.99967C0.933333 4.13301 4.13333 1.33301 8 1.33301C11.8667 1.33301 15.0667 4.13301 16 7.99967C15.0667 11.8663 11.8667 14.6663 8 14.6663C4.13333 14.6663 0.933333 11.8663 0 7.99967ZM4.66667 7.99967C4.66667 9.86634 6.13333 11.333 8 11.333C9.86667 11.333 11.3333 9.86634 11.3333 7.99967C11.3333 6.13301 9.86667 4.66634 8 4.66634C6.13333 4.66634 4.66667 6.13301 4.66667 7.99967ZM9.33333 7.99967C9.33333 8.73605 8.73638 9.33301 8 9.33301C7.26362 9.33301 6.66667 8.73605 6.66667 7.99967C6.66667 7.26329 7.26362 6.66634 8 6.66634C8.73638 6.66634 9.33333 7.26329 9.33333 7.99967Z" fill="#24272A"/>
</g>
</svg>
