<svg width="25" height="24" viewBox="0 0 25 24" fill="none" xmlns="http://www.w3.org/2000/svg">
<path fill-rule="evenodd" clip-rule="evenodd" d="M12.5 11.75C12.6989 11.75 12.8897 11.829 13.0303 11.9697C13.171 12.1103 13.25 12.3011 13.25 12.5V13.25H14C14.1989 13.25 14.3897 13.329 14.5303 13.4697C14.671 13.6103 14.75 13.8011 14.75 14C14.75 14.1989 14.671 14.3897 14.5303 14.5303C14.3897 14.671 14.1989 14.75 14 14.75H13.25V15.5C13.25 15.6989 13.171 15.8897 13.0303 16.0303C12.8897 16.171 12.6989 16.25 12.5 16.25C12.3011 16.25 12.1103 16.171 11.9697 16.0303C11.829 15.8897 11.75 15.6989 11.75 15.5V14.75H11C10.8011 14.75 10.6103 14.671 10.4697 14.5303C10.329 14.3897 10.25 14.1989 10.25 14C10.25 13.8011 10.329 13.6103 10.4697 13.4697C10.6103 13.329 10.8011 13.25 11 13.25H11.75V12.5C11.75 12.3011 11.829 12.1103 11.9697 11.9697C12.1103 11.829 12.3011 11.75 12.5 11.75Z" fill="#FA5805"/>
<path fill-rule="evenodd" clip-rule="evenodd" d="M12.448 1.25C11.549 1.25 10.8 1.25 10.206 1.33C9.578 1.414 9.011 1.6 8.556 2.055C8.1 2.511 7.914 3.078 7.83 3.705C7.75 4.3 7.75 5.05 7.75 5.948V6.026C5.729 6.092 4.515 6.328 3.672 7.172C2.5 8.343 2.5 10.229 2.5 14C2.5 17.771 2.5 19.657 3.672 20.828C4.843 22 6.729 22 10.5 22H14.5C18.271 22 20.157 22 21.328 20.828C22.5 19.657 22.5 17.771 22.5 14C22.5 10.229 22.5 8.343 21.328 7.172C20.485 6.328 19.271 6.092 17.25 6.026V5.948C17.25 5.05 17.25 4.3 17.17 3.706C17.086 3.078 16.9 2.511 16.444 2.056C15.989 1.6 15.422 1.414 14.794 1.33C14.2 1.25 13.45 1.25 12.552 1.25H12.448ZM15.75 6.002V6C15.75 5.036 15.748 4.388 15.684 3.905C15.621 3.444 15.514 3.246 15.384 3.116C15.254 2.986 15.056 2.879 14.594 2.816C14.112 2.752 13.464 2.75 12.5 2.75C11.536 2.75 10.888 2.752 10.405 2.817C9.944 2.879 9.746 2.986 9.616 3.117C9.486 3.247 9.379 3.444 9.316 3.905C9.253 4.388 9.25 5.036 9.25 6V6.002C9.642 6 10.058 6 10.5 6H14.5C14.942 6 15.358 6 15.75 6.002ZM16.5 14C16.5 15.0609 16.0786 16.0783 15.3284 16.8284C14.5783 17.5786 13.5609 18 12.5 18C11.4391 18 10.4217 17.5786 9.67157 16.8284C8.92143 16.0783 8.5 15.0609 8.5 14C8.5 12.9391 8.92143 11.9217 9.67157 11.1716C10.4217 10.4214 11.4391 10 12.5 10C13.5609 10 14.5783 10.4214 15.3284 11.1716C16.0786 11.9217 16.5 12.9391 16.5 14Z" fill="#FA5805"/>
</svg>
