<svg width="16" height="16" viewBox="0 0 16 16" fill="none" xmlns="http://www.w3.org/2000/svg">
<g clip-path="url(#clip0_41_246)">
<path d="M15.3 6.40002C15.175 6.27504 15.0055 6.20483 14.8287 6.20483C14.6519 6.20483 14.4824 6.27504 14.3573 6.40002L7.09602 13.6927C6.78649 14.0023 6.41902 14.2478 6.01459 14.4154C5.61016 14.5829 5.17668 14.6692 4.73892 14.6692C3.85481 14.6693 3.00689 14.3181 2.38168 13.693C1.75648 13.0679 1.40521 12.22 1.40515 11.3359C1.40508 10.4518 1.75623 9.60389 2.38135 8.97869L9.41402 1.91736C9.79008 1.54728 10.2971 1.3408 10.8247 1.34289C11.3523 1.34497 11.8578 1.55546 12.2309 1.92849C12.604 2.30153 12.8146 2.80689 12.8168 3.33449C12.819 3.8621 12.6127 4.36921 12.2427 4.74536L5.21002 11.8067C5.08318 11.9282 4.91432 11.996 4.73868 11.996C4.56304 11.996 4.39418 11.9282 4.26735 11.8067C4.14237 11.6817 4.07216 11.5121 4.07216 11.3354C4.07216 11.1586 4.14237 10.989 4.26735 10.864L10.5287 4.57402C10.6501 4.44829 10.7173 4.27989 10.7158 4.10509C10.7143 3.93029 10.6442 3.76308 10.5206 3.63948C10.397 3.51587 10.2297 3.44576 10.0549 3.44424C9.88015 3.44272 9.71175 3.50992 9.58602 3.63136L3.32468 9.92136C3.13893 10.1071 2.99158 10.3276 2.89105 10.5702C2.79052 10.8129 2.73878 11.073 2.73878 11.3357C2.73878 11.5984 2.79052 11.8585 2.89105 12.1011C2.99158 12.3438 3.13893 12.5643 3.32468 12.75C3.70576 13.1137 4.21227 13.3166 4.73902 13.3166C5.26576 13.3166 5.77227 13.1137 6.15335 12.75L13.1853 5.68802C13.7973 5.06022 14.1374 4.21659 14.1317 3.33987C14.1261 2.46315 13.7753 1.62394 13.1553 1.00404C12.5353 0.384133 11.6961 0.0334519 10.8194 0.0279586C9.94265 0.0224653 9.09906 0.362603 8.47135 0.974689L1.43868 8.03602C0.563468 8.91124 0.0717773 10.0983 0.0717773 11.336C0.0717774 12.5738 0.563468 13.7608 1.43868 14.636C2.3139 15.5112 3.50094 16.0029 4.73868 16.0029C5.97642 16.0029 7.16347 15.5112 8.03868 14.636L15.3 7.34536C15.3623 7.2834 15.4117 7.20975 15.4455 7.12864C15.4792 7.04752 15.4965 6.96054 15.4965 6.87269C15.4965 6.78484 15.4792 6.69786 15.4455 6.61674C15.4117 6.53562 15.3623 6.46197 15.3 6.40002Z" fill="#AAAAAA"/>
</g>
<defs>
<clipPath id="clip0_41_246">
<rect width="16" height="16" fill="white"/>
</clipPath>
</defs>
</svg>
