<svg width="25" height="24" viewBox="0 0 25 24" fill="none" xmlns="http://www.w3.org/2000/svg">
<path d="M12.5 11.75C12.6989 11.75 12.8897 11.829 13.0303 11.9697C13.171 12.1103 13.25 12.3011 13.25 12.5V13.25H14C14.1989 13.25 14.3897 13.329 14.5303 13.4697C14.671 13.6103 14.75 13.8011 14.75 14C14.75 14.1989 14.671 14.3897 14.5303 14.5303C14.3897 14.671 14.1989 14.75 14 14.75H13.25V15.5C13.25 15.6989 13.171 15.8897 13.0303 16.0303C12.8897 16.171 12.6989 16.25 12.5 16.25C12.3011 16.25 12.1103 16.171 11.9697 16.0303C11.829 15.8897 11.75 15.6989 11.75 15.5V14.75H11C10.8011 14.75 10.6103 14.671 10.4697 14.5303C10.329 14.3897 10.25 14.1989 10.25 14C10.25 13.8011 10.329 13.6103 10.4697 13.4697C10.6103 13.329 10.8011 13.25 11 13.25H11.75V12.5C11.75 12.3011 11.829 12.1103 11.9697 11.9697C12.1103 11.829 12.3011 11.75 12.5 11.75Z" fill="#111111"/>
<path fill-rule="evenodd" clip-rule="evenodd" d="M12.5 9.25C11.2402 9.25 10.032 9.75045 9.14124 10.6412C8.25045 11.532 7.75 12.7402 7.75 14C7.75 15.2598 8.25045 16.468 9.14124 17.3588C10.032 18.2496 11.2402 18.75 12.5 18.75C13.7598 18.75 14.968 18.2496 15.8588 17.3588C16.7496 16.468 17.25 15.2598 17.25 14C17.25 12.7402 16.7496 11.532 15.8588 10.6412C14.968 9.75045 13.7598 9.25 12.5 9.25ZM9.25 14C9.25 13.138 9.59241 12.3114 10.2019 11.7019C10.8114 11.0924 11.638 10.75 12.5 10.75C13.362 10.75 14.1886 11.0924 14.7981 11.7019C15.4076 12.3114 15.75 13.138 15.75 14C15.75 14.862 15.4076 15.6886 14.7981 16.2981C14.1886 16.9076 13.362 17.25 12.5 17.25C11.638 17.25 10.8114 16.9076 10.2019 16.2981C9.59241 15.6886 9.25 14.862 9.25 14Z" fill="#111111"/>
<path fill-rule="evenodd" clip-rule="evenodd" d="M12.448 1.25C11.549 1.25 10.8 1.25 10.206 1.33C9.578 1.414 9.011 1.6 8.556 2.055C8.1 2.511 7.914 3.078 7.83 3.705C7.77 4.145 7.755 4.669 7.751 5.275C7.103 5.296 6.525 5.335 6.011 5.403C4.839 5.561 3.89 5.893 3.141 6.641C2.393 7.39 2.061 8.339 1.903 9.511C1.75 10.651 1.75 12.106 1.75 13.944V14.056C1.75 15.894 1.75 17.35 1.903 18.489C2.061 19.661 2.393 20.61 3.141 21.359C3.89 22.107 4.839 22.439 6.011 22.597C7.151 22.75 8.606 22.75 10.444 22.75H14.556C16.394 22.75 17.85 22.75 18.989 22.597C20.161 22.439 21.11 22.107 21.859 21.359C22.607 20.61 22.939 19.661 23.097 18.489C23.25 17.349 23.25 15.894 23.25 14.056V13.944C23.25 12.106 23.25 10.65 23.097 9.511C22.939 8.339 22.607 7.39 21.859 6.641C21.11 5.893 20.161 5.561 18.989 5.403C18.4115 5.33136 17.8308 5.28864 17.249 5.275C17.245 4.669 17.229 4.145 17.17 3.705C17.086 3.078 16.9 2.511 16.444 2.055C15.989 1.6 15.422 1.415 14.794 1.33C14.2 1.25 13.45 1.25 12.552 1.25H12.448ZM15.748 5.252C15.744 4.682 15.73 4.252 15.684 3.905C15.621 3.444 15.514 3.246 15.384 3.116C15.254 2.986 15.056 2.879 14.594 2.816C14.112 2.752 13.464 2.75 12.5 2.75C11.536 2.75 10.888 2.752 10.405 2.817C9.944 2.879 9.746 2.986 9.616 3.117C9.486 3.247 9.379 3.444 9.316 3.905C9.27 4.251 9.256 4.681 9.252 5.252C9.63 5.25 10.027 5.25 10.444 5.25H14.556C14.973 5.25 15.37 5.25 15.748 5.252ZM4.202 7.702C4.625 7.279 5.205 7.025 6.211 6.89C7.239 6.752 8.593 6.75 10.5 6.75H14.5C16.407 6.75 17.762 6.752 18.79 6.89C19.795 7.025 20.375 7.279 20.798 7.702C21.221 8.125 21.475 8.705 21.61 9.711C21.748 10.738 21.75 12.093 21.75 14C21.75 15.907 21.748 17.262 21.61 18.29C21.475 19.295 21.221 19.875 20.798 20.298C20.375 20.721 19.795 20.975 18.789 21.11C17.762 21.248 16.407 21.25 14.5 21.25H10.5C8.593 21.25 7.239 21.248 6.21 21.11C5.205 20.975 4.625 20.721 4.202 20.298C3.779 19.875 3.525 19.295 3.39 18.289C3.252 17.262 3.25 15.907 3.25 14C3.25 12.093 3.252 10.739 3.39 9.71C3.525 8.705 3.779 8.125 4.202 7.702Z" fill="#111111"/>
</svg>
