<svg width="18" height="18" viewBox="0 0 18 18" fill="none" xmlns="http://www.w3.org/2000/svg">
<path fill-rule="evenodd" clip-rule="evenodd" d="M8.41756 13.1957L4.80432 9.58244C5.20156 8.91721 5.59736 8.22938 5.99034 7.54642C7.29689 5.27579 8.57245 3.05904 9.7674 1.90602C13.0125 -1.33908 17.4574 0.542527 17.4574 0.542527C17.4574 0.542527 19.3391 4.98749 16.0939 8.23258C14.9504 9.41772 12.7686 10.6742 10.5153 11.9717C9.81328 12.376 9.10419 12.7843 8.41756 13.1957ZM11.1697 4.79668C11.1697 3.67354 12.0802 2.76306 13.2034 2.76306C14.3265 2.76306 15.237 3.67354 15.237 4.79668C15.237 5.91981 14.3265 6.83031 13.2034 6.83031C12.0802 6.83031 11.1697 5.91981 11.1697 4.79668ZM5.90999 4.49857C4.087 4.01346 2.37642 4.91171 0.858657 6.30389C0.553366 6.58394 0.617125 7.07375 0.971981 7.28753L3.42158 8.7632L3.42441 8.75843C3.77778 8.1667 4.17276 7.48126 4.57295 6.78682C5.02991 5.99384 5.49381 5.18885 5.90999 4.49857ZM9.23683 14.5783L10.7125 17.0279C10.9263 17.3827 11.4161 17.4465 11.6961 17.1413C13.0888 15.623 13.9872 13.9118 13.501 12.0881C12.8307 12.4921 12.1258 12.8988 11.4276 13.301L11.3211 13.3623C10.6158 13.7685 9.91786 14.1704 9.24344 14.5743L9.23683 14.5783ZM3.37131 12.0123C3.71658 12.0062 4.05953 12.0697 4.37972 12.199C4.6999 12.3284 4.99077 12.5209 5.23494 12.7651C5.47912 13.0092 5.67162 13.3001 5.80095 13.6203C5.93028 13.9405 5.99379 14.2834 5.9877 14.6287C5.98161 14.9739 5.90603 15.3144 5.76549 15.6299C5.62567 15.9438 5.42439 16.2264 5.17355 16.461C4.88841 16.7341 4.44225 16.9476 4.02861 17.112C3.58757 17.2873 3.08431 17.4439 2.61445 17.5721C2.14302 17.7008 1.69275 17.8043 1.35271 17.8718C1.18385 17.9052 1.0349 17.9313 0.920727 17.9469C0.865921 17.9544 0.805386 17.9613 0.749512 17.9637C0.724184 17.9649 0.678402 17.9663 0.62605 17.9613C0.600956 17.9589 0.552372 17.9531 0.494596 17.9358C0.456459 17.9244 0.308312 17.8793 0.18489 17.7353C0.0791769 17.612 0.0503969 17.4833 0.0434637 17.4523C0.0323495 17.4027 0.0289518 17.3606 0.0276661 17.3382C0.0249989 17.292 0.0270156 17.2509 0.0285938 17.2265C0.0320174 17.1737 0.0393108 17.1154 0.0472455 17.0609C0.0636688 16.9479 0.090351 16.8002 0.124531 16.6317C0.193279 16.293 0.297656 15.8448 0.426974 15.3753C0.555841 14.9075 0.712794 14.4066 0.888265 13.9674C1.05294 13.5552 1.26646 13.1109 1.53903 12.8264C1.77372 12.5756 2.05631 12.3743 2.37011 12.2345C2.68554 12.094 3.02604 12.0184 3.37131 12.0123Z" fill="#FA5805"/>
</svg>
